<?xml version="1.0" encoding="UTF-8" standalone="no"?>
<svg width="38px" height="38px" viewBox="0 0 38 38" version="1.1" xmlns="http://www.w3.org/2000/svg" xmlns:xlink="http://www.w3.org/1999/xlink">
    <!-- Generator: Sketch Beta 3.8.3 (29801) - http://www.bohemiancoding.com/sketch -->
    <title>Artboard 7</title>
    <desc>Created with Sketch Beta.</desc>
    <defs></defs>
    <g id="Thank-you-messages" stroke="none" stroke-width="1" fill="none" fill-rule="evenodd">
        <g id="Artboard-7" fill="#30AD62">
            <g id="Group-Copy">
                <path d="M19,37.5 C29.2172679,37.5 37.5,29.2172679 37.5,19 C37.5,8.78273213 29.2172679,0.5 19,0.5 C8.78273213,0.5 0.5,8.78273213 0.5,19 C0.5,29.2172679 8.78273213,37.5 19,37.5 L19,37.5 Z M19,36.5 C9.33501688,36.5 1.5,28.6649831 1.5,19 C1.5,9.33501688 9.33501688,1.5 19,1.5 C28.6649831,1.5 36.5,9.33501688 36.5,19 C36.5,28.6649831 28.6649831,36.5 19,36.5 L19,36.5 Z" id="Oval-1"></path>
                <path d="M10.8002835,20.6554282 L15.640758,25.3616453 L16.366718,26.0674698 L17.0634524,25.3327812 L27.4010325,14.4320663 C27.7810685,14.0313281 27.764286,13.3983856 27.3635478,13.0183496 C26.9628095,12.6383137 26.329867,12.6550962 25.9498311,13.0558344 L15.6122509,23.9565493 L17.0349453,23.9276851 L12.1944707,19.221468 C11.7984936,18.8364738 11.1653912,18.8453773 10.780397,19.2413544 C10.3954028,19.6373316 10.4043063,20.270434 10.8002835,20.6554282 L10.8002835,20.6554282 Z" id="Path-1"></path>
            </g>
        </g>
    </g>
</svg>